<mxfile host="Electron" agent="Mozilla/5.0 (X11; Linux x86_64) AppleWebKit/537.36 (KHTML, like Gecko) draw.io/26.0.9 Chrome/128.0.6613.186 Electron/32.3.0 Safari/537.36" version="26.0.9">
  <diagram name="Page-1" id="7UvJQgDyGZmRkDd0py6e">
    <mxGraphModel dx="945" dy="2504" grid="1" gridSize="10" guides="1" tooltips="1" connect="1" arrows="1" fold="1" page="1" pageScale="1" pageWidth="1200" pageHeight="1920" math="0" shadow="0">
      <root>
        <mxCell id="0" />
        <mxCell id="1" parent="0" />
        <mxCell id="R541b7eBRNCDeRxsf6V9-23" value="" style="group" parent="1" vertex="1" connectable="0">
          <mxGeometry x="480" y="240" width="240" height="200" as="geometry" />
        </mxCell>
        <mxCell id="R541b7eBRNCDeRxsf6V9-24" value="RAM8" style="rounded=0;whiteSpace=wrap;html=1;" parent="R541b7eBRNCDeRxsf6V9-23" vertex="1">
          <mxGeometry x="60" y="40" width="120" height="160" as="geometry" />
        </mxCell>
        <mxCell id="R541b7eBRNCDeRxsf6V9-25" value="" style="triangle;whiteSpace=wrap;html=1;direction=north;" parent="R541b7eBRNCDeRxsf6V9-23" vertex="1">
          <mxGeometry x="107.5" y="180" width="25" height="20" as="geometry" />
        </mxCell>
        <mxCell id="R541b7eBRNCDeRxsf6V9-26" value="" style="endArrow=classic;html=1;rounded=0;entryX=0.5;entryY=0;entryDx=0;entryDy=0;" parent="R541b7eBRNCDeRxsf6V9-23" target="R541b7eBRNCDeRxsf6V9-24" edge="1">
          <mxGeometry width="50" height="50" relative="1" as="geometry">
            <mxPoint x="120" as="sourcePoint" />
            <mxPoint x="160" y="60" as="targetPoint" />
          </mxGeometry>
        </mxCell>
        <mxCell id="R541b7eBRNCDeRxsf6V9-27" value="load" style="edgeLabel;html=1;align=center;verticalAlign=middle;resizable=0;points=[];fontSize=8;" parent="R541b7eBRNCDeRxsf6V9-26" vertex="1" connectable="0">
          <mxGeometry x="-0.1034" relative="1" as="geometry">
            <mxPoint as="offset" />
          </mxGeometry>
        </mxCell>
        <mxCell id="R541b7eBRNCDeRxsf6V9-28" value="" style="endArrow=classic;html=1;rounded=0;entryX=0;entryY=0.25;entryDx=0;entryDy=0;" parent="R541b7eBRNCDeRxsf6V9-23" target="R541b7eBRNCDeRxsf6V9-24" edge="1">
          <mxGeometry width="50" height="50" relative="1" as="geometry">
            <mxPoint y="80" as="sourcePoint" />
            <mxPoint x="150" y="90" as="targetPoint" />
          </mxGeometry>
        </mxCell>
        <mxCell id="R541b7eBRNCDeRxsf6V9-29" value="in (16 bits)" style="edgeLabel;html=1;align=center;verticalAlign=middle;resizable=0;points=[];fontSize=8;" parent="R541b7eBRNCDeRxsf6V9-28" vertex="1" connectable="0">
          <mxGeometry x="-0.0168" relative="1" as="geometry">
            <mxPoint as="offset" />
          </mxGeometry>
        </mxCell>
        <mxCell id="R541b7eBRNCDeRxsf6V9-30" value="" style="endArrow=classic;html=1;rounded=0;entryX=0;entryY=0.25;entryDx=0;entryDy=0;" parent="R541b7eBRNCDeRxsf6V9-23" edge="1">
          <mxGeometry width="50" height="50" relative="1" as="geometry">
            <mxPoint y="160" as="sourcePoint" />
            <mxPoint x="60" y="160" as="targetPoint" />
          </mxGeometry>
        </mxCell>
        <mxCell id="R541b7eBRNCDeRxsf6V9-31" value="address(3 bits)" style="edgeLabel;html=1;align=center;verticalAlign=middle;resizable=0;points=[];fontSize=7;" parent="R541b7eBRNCDeRxsf6V9-30" vertex="1" connectable="0">
          <mxGeometry x="-0.0168" relative="1" as="geometry">
            <mxPoint as="offset" />
          </mxGeometry>
        </mxCell>
        <mxCell id="R541b7eBRNCDeRxsf6V9-32" value="" style="endArrow=classic;html=1;rounded=0;entryX=0;entryY=0.25;entryDx=0;entryDy=0;" parent="R541b7eBRNCDeRxsf6V9-23" edge="1">
          <mxGeometry width="50" height="50" relative="1" as="geometry">
            <mxPoint x="180" y="119.75999999999999" as="sourcePoint" />
            <mxPoint x="240" y="119.75999999999999" as="targetPoint" />
          </mxGeometry>
        </mxCell>
        <mxCell id="R541b7eBRNCDeRxsf6V9-33" value="out (16 bits)" style="edgeLabel;html=1;align=center;verticalAlign=middle;resizable=0;points=[];fontSize=8;" parent="R541b7eBRNCDeRxsf6V9-32" vertex="1" connectable="0">
          <mxGeometry x="-0.0168" relative="1" as="geometry">
            <mxPoint as="offset" />
          </mxGeometry>
        </mxCell>
        <mxCell id="R541b7eBRNCDeRxsf6V9-34" value="" style="group" parent="1" vertex="1" connectable="0">
          <mxGeometry x="660" y="440" width="240" height="200" as="geometry" />
        </mxCell>
        <mxCell id="R541b7eBRNCDeRxsf6V9-35" value="RAM8" style="rounded=0;whiteSpace=wrap;html=1;" parent="R541b7eBRNCDeRxsf6V9-34" vertex="1">
          <mxGeometry x="60" y="40" width="120" height="160" as="geometry" />
        </mxCell>
        <mxCell id="R541b7eBRNCDeRxsf6V9-36" value="" style="triangle;whiteSpace=wrap;html=1;direction=north;" parent="R541b7eBRNCDeRxsf6V9-34" vertex="1">
          <mxGeometry x="107.5" y="180" width="25" height="20" as="geometry" />
        </mxCell>
        <mxCell id="R541b7eBRNCDeRxsf6V9-37" value="" style="endArrow=classic;html=1;rounded=0;entryX=0.5;entryY=0;entryDx=0;entryDy=0;" parent="R541b7eBRNCDeRxsf6V9-34" target="R541b7eBRNCDeRxsf6V9-35" edge="1">
          <mxGeometry width="50" height="50" relative="1" as="geometry">
            <mxPoint x="120" as="sourcePoint" />
            <mxPoint x="160" y="60" as="targetPoint" />
          </mxGeometry>
        </mxCell>
        <mxCell id="R541b7eBRNCDeRxsf6V9-38" value="load" style="edgeLabel;html=1;align=center;verticalAlign=middle;resizable=0;points=[];fontSize=8;" parent="R541b7eBRNCDeRxsf6V9-37" vertex="1" connectable="0">
          <mxGeometry x="-0.1034" relative="1" as="geometry">
            <mxPoint as="offset" />
          </mxGeometry>
        </mxCell>
        <mxCell id="R541b7eBRNCDeRxsf6V9-39" value="" style="endArrow=classic;html=1;rounded=0;entryX=0;entryY=0.25;entryDx=0;entryDy=0;" parent="R541b7eBRNCDeRxsf6V9-34" target="R541b7eBRNCDeRxsf6V9-35" edge="1">
          <mxGeometry width="50" height="50" relative="1" as="geometry">
            <mxPoint y="80" as="sourcePoint" />
            <mxPoint x="150" y="90" as="targetPoint" />
          </mxGeometry>
        </mxCell>
        <mxCell id="R541b7eBRNCDeRxsf6V9-40" value="in (16 bits)" style="edgeLabel;html=1;align=center;verticalAlign=middle;resizable=0;points=[];fontSize=8;" parent="R541b7eBRNCDeRxsf6V9-39" vertex="1" connectable="0">
          <mxGeometry x="-0.0168" relative="1" as="geometry">
            <mxPoint as="offset" />
          </mxGeometry>
        </mxCell>
        <mxCell id="R541b7eBRNCDeRxsf6V9-41" value="" style="endArrow=classic;html=1;rounded=0;entryX=0;entryY=0.25;entryDx=0;entryDy=0;" parent="R541b7eBRNCDeRxsf6V9-34" edge="1">
          <mxGeometry width="50" height="50" relative="1" as="geometry">
            <mxPoint y="160" as="sourcePoint" />
            <mxPoint x="60" y="160" as="targetPoint" />
          </mxGeometry>
        </mxCell>
        <mxCell id="R541b7eBRNCDeRxsf6V9-42" value="address(3 bits)" style="edgeLabel;html=1;align=center;verticalAlign=middle;resizable=0;points=[];fontSize=7;" parent="R541b7eBRNCDeRxsf6V9-41" vertex="1" connectable="0">
          <mxGeometry x="-0.0168" relative="1" as="geometry">
            <mxPoint as="offset" />
          </mxGeometry>
        </mxCell>
        <mxCell id="R541b7eBRNCDeRxsf6V9-43" value="" style="endArrow=classic;html=1;rounded=0;entryX=0;entryY=0.25;entryDx=0;entryDy=0;" parent="R541b7eBRNCDeRxsf6V9-34" edge="1">
          <mxGeometry width="50" height="50" relative="1" as="geometry">
            <mxPoint x="180" y="119.75999999999999" as="sourcePoint" />
            <mxPoint x="240" y="119.75999999999999" as="targetPoint" />
          </mxGeometry>
        </mxCell>
        <mxCell id="R541b7eBRNCDeRxsf6V9-44" value="out (16 bits)" style="edgeLabel;html=1;align=center;verticalAlign=middle;resizable=0;points=[];fontSize=8;" parent="R541b7eBRNCDeRxsf6V9-43" vertex="1" connectable="0">
          <mxGeometry x="-0.0168" relative="1" as="geometry">
            <mxPoint as="offset" />
          </mxGeometry>
        </mxCell>
        <mxCell id="R541b7eBRNCDeRxsf6V9-45" value="" style="group" parent="1" vertex="1" connectable="0">
          <mxGeometry x="840" y="640" width="240" height="200" as="geometry" />
        </mxCell>
        <mxCell id="R541b7eBRNCDeRxsf6V9-46" value="RAM8" style="rounded=0;whiteSpace=wrap;html=1;" parent="R541b7eBRNCDeRxsf6V9-45" vertex="1">
          <mxGeometry x="60" y="40" width="120" height="160" as="geometry" />
        </mxCell>
        <mxCell id="R541b7eBRNCDeRxsf6V9-47" value="" style="triangle;whiteSpace=wrap;html=1;direction=north;" parent="R541b7eBRNCDeRxsf6V9-45" vertex="1">
          <mxGeometry x="107.5" y="180" width="25" height="20" as="geometry" />
        </mxCell>
        <mxCell id="R541b7eBRNCDeRxsf6V9-48" value="" style="endArrow=classic;html=1;rounded=0;entryX=0.5;entryY=0;entryDx=0;entryDy=0;" parent="R541b7eBRNCDeRxsf6V9-45" target="R541b7eBRNCDeRxsf6V9-46" edge="1">
          <mxGeometry width="50" height="50" relative="1" as="geometry">
            <mxPoint x="120" as="sourcePoint" />
            <mxPoint x="160" y="60" as="targetPoint" />
          </mxGeometry>
        </mxCell>
        <mxCell id="R541b7eBRNCDeRxsf6V9-49" value="load" style="edgeLabel;html=1;align=center;verticalAlign=middle;resizable=0;points=[];fontSize=8;" parent="R541b7eBRNCDeRxsf6V9-48" vertex="1" connectable="0">
          <mxGeometry x="-0.1034" relative="1" as="geometry">
            <mxPoint as="offset" />
          </mxGeometry>
        </mxCell>
        <mxCell id="R541b7eBRNCDeRxsf6V9-50" value="" style="endArrow=classic;html=1;rounded=0;entryX=0;entryY=0.25;entryDx=0;entryDy=0;" parent="R541b7eBRNCDeRxsf6V9-45" target="R541b7eBRNCDeRxsf6V9-46" edge="1">
          <mxGeometry width="50" height="50" relative="1" as="geometry">
            <mxPoint y="80" as="sourcePoint" />
            <mxPoint x="150" y="90" as="targetPoint" />
          </mxGeometry>
        </mxCell>
        <mxCell id="R541b7eBRNCDeRxsf6V9-51" value="in (16 bits)" style="edgeLabel;html=1;align=center;verticalAlign=middle;resizable=0;points=[];fontSize=8;" parent="R541b7eBRNCDeRxsf6V9-50" vertex="1" connectable="0">
          <mxGeometry x="-0.0168" relative="1" as="geometry">
            <mxPoint as="offset" />
          </mxGeometry>
        </mxCell>
        <mxCell id="R541b7eBRNCDeRxsf6V9-52" value="" style="endArrow=classic;html=1;rounded=0;entryX=0;entryY=0.25;entryDx=0;entryDy=0;" parent="R541b7eBRNCDeRxsf6V9-45" edge="1">
          <mxGeometry width="50" height="50" relative="1" as="geometry">
            <mxPoint y="160" as="sourcePoint" />
            <mxPoint x="60" y="160" as="targetPoint" />
          </mxGeometry>
        </mxCell>
        <mxCell id="R541b7eBRNCDeRxsf6V9-53" value="address(3 bits)" style="edgeLabel;html=1;align=center;verticalAlign=middle;resizable=0;points=[];fontSize=7;" parent="R541b7eBRNCDeRxsf6V9-52" vertex="1" connectable="0">
          <mxGeometry x="-0.0168" relative="1" as="geometry">
            <mxPoint as="offset" />
          </mxGeometry>
        </mxCell>
        <mxCell id="R541b7eBRNCDeRxsf6V9-54" value="" style="endArrow=classic;html=1;rounded=0;entryX=0;entryY=0.25;entryDx=0;entryDy=0;" parent="R541b7eBRNCDeRxsf6V9-45" edge="1">
          <mxGeometry width="50" height="50" relative="1" as="geometry">
            <mxPoint x="180" y="119.75999999999999" as="sourcePoint" />
            <mxPoint x="240" y="119.75999999999999" as="targetPoint" />
          </mxGeometry>
        </mxCell>
        <mxCell id="R541b7eBRNCDeRxsf6V9-55" value="out (16 bits)" style="edgeLabel;html=1;align=center;verticalAlign=middle;resizable=0;points=[];fontSize=8;" parent="R541b7eBRNCDeRxsf6V9-54" vertex="1" connectable="0">
          <mxGeometry x="-0.0168" relative="1" as="geometry">
            <mxPoint as="offset" />
          </mxGeometry>
        </mxCell>
        <mxCell id="R541b7eBRNCDeRxsf6V9-56" value="" style="group" parent="1" vertex="1" connectable="0">
          <mxGeometry x="1020" y="840" width="240" height="200" as="geometry" />
        </mxCell>
        <mxCell id="R541b7eBRNCDeRxsf6V9-57" value="RAM8" style="rounded=0;whiteSpace=wrap;html=1;" parent="R541b7eBRNCDeRxsf6V9-56" vertex="1">
          <mxGeometry x="60" y="40" width="120" height="160" as="geometry" />
        </mxCell>
        <mxCell id="R541b7eBRNCDeRxsf6V9-58" value="" style="triangle;whiteSpace=wrap;html=1;direction=north;" parent="R541b7eBRNCDeRxsf6V9-56" vertex="1">
          <mxGeometry x="107.5" y="180" width="25" height="20" as="geometry" />
        </mxCell>
        <mxCell id="R541b7eBRNCDeRxsf6V9-59" value="" style="endArrow=classic;html=1;rounded=0;entryX=0.5;entryY=0;entryDx=0;entryDy=0;" parent="R541b7eBRNCDeRxsf6V9-56" target="R541b7eBRNCDeRxsf6V9-57" edge="1">
          <mxGeometry width="50" height="50" relative="1" as="geometry">
            <mxPoint x="120" as="sourcePoint" />
            <mxPoint x="160" y="60" as="targetPoint" />
          </mxGeometry>
        </mxCell>
        <mxCell id="R541b7eBRNCDeRxsf6V9-60" value="load" style="edgeLabel;html=1;align=center;verticalAlign=middle;resizable=0;points=[];fontSize=8;" parent="R541b7eBRNCDeRxsf6V9-59" vertex="1" connectable="0">
          <mxGeometry x="-0.1034" relative="1" as="geometry">
            <mxPoint as="offset" />
          </mxGeometry>
        </mxCell>
        <mxCell id="R541b7eBRNCDeRxsf6V9-61" value="" style="endArrow=classic;html=1;rounded=0;entryX=0;entryY=0.25;entryDx=0;entryDy=0;" parent="R541b7eBRNCDeRxsf6V9-56" target="R541b7eBRNCDeRxsf6V9-57" edge="1">
          <mxGeometry width="50" height="50" relative="1" as="geometry">
            <mxPoint y="80" as="sourcePoint" />
            <mxPoint x="150" y="90" as="targetPoint" />
          </mxGeometry>
        </mxCell>
        <mxCell id="R541b7eBRNCDeRxsf6V9-62" value="in (16 bits)" style="edgeLabel;html=1;align=center;verticalAlign=middle;resizable=0;points=[];fontSize=8;" parent="R541b7eBRNCDeRxsf6V9-61" vertex="1" connectable="0">
          <mxGeometry x="-0.0168" relative="1" as="geometry">
            <mxPoint as="offset" />
          </mxGeometry>
        </mxCell>
        <mxCell id="R541b7eBRNCDeRxsf6V9-63" value="" style="endArrow=classic;html=1;rounded=0;entryX=0;entryY=0.25;entryDx=0;entryDy=0;" parent="R541b7eBRNCDeRxsf6V9-56" edge="1">
          <mxGeometry width="50" height="50" relative="1" as="geometry">
            <mxPoint y="160" as="sourcePoint" />
            <mxPoint x="60" y="160" as="targetPoint" />
          </mxGeometry>
        </mxCell>
        <mxCell id="R541b7eBRNCDeRxsf6V9-64" value="address(3 bits)" style="edgeLabel;html=1;align=center;verticalAlign=middle;resizable=0;points=[];fontSize=7;" parent="R541b7eBRNCDeRxsf6V9-63" vertex="1" connectable="0">
          <mxGeometry x="-0.0168" relative="1" as="geometry">
            <mxPoint as="offset" />
          </mxGeometry>
        </mxCell>
        <mxCell id="R541b7eBRNCDeRxsf6V9-65" value="" style="endArrow=classic;html=1;rounded=0;entryX=0;entryY=0.25;entryDx=0;entryDy=0;" parent="R541b7eBRNCDeRxsf6V9-56" edge="1">
          <mxGeometry width="50" height="50" relative="1" as="geometry">
            <mxPoint x="180" y="119.75999999999999" as="sourcePoint" />
            <mxPoint x="240" y="119.75999999999999" as="targetPoint" />
          </mxGeometry>
        </mxCell>
        <mxCell id="R541b7eBRNCDeRxsf6V9-66" value="out (16 bits)" style="edgeLabel;html=1;align=center;verticalAlign=middle;resizable=0;points=[];fontSize=8;" parent="R541b7eBRNCDeRxsf6V9-65" vertex="1" connectable="0">
          <mxGeometry x="-0.0168" relative="1" as="geometry">
            <mxPoint as="offset" />
          </mxGeometry>
        </mxCell>
        <mxCell id="R541b7eBRNCDeRxsf6V9-67" value="" style="group" parent="1" vertex="1" connectable="0">
          <mxGeometry x="1200" y="1040" width="240" height="200" as="geometry" />
        </mxCell>
        <mxCell id="R541b7eBRNCDeRxsf6V9-68" value="RAM8" style="rounded=0;whiteSpace=wrap;html=1;" parent="R541b7eBRNCDeRxsf6V9-67" vertex="1">
          <mxGeometry x="60" y="40" width="120" height="160" as="geometry" />
        </mxCell>
        <mxCell id="R541b7eBRNCDeRxsf6V9-69" value="" style="triangle;whiteSpace=wrap;html=1;direction=north;" parent="R541b7eBRNCDeRxsf6V9-67" vertex="1">
          <mxGeometry x="107.5" y="180" width="25" height="20" as="geometry" />
        </mxCell>
        <mxCell id="R541b7eBRNCDeRxsf6V9-70" value="" style="endArrow=classic;html=1;rounded=0;entryX=0.5;entryY=0;entryDx=0;entryDy=0;" parent="R541b7eBRNCDeRxsf6V9-67" target="R541b7eBRNCDeRxsf6V9-68" edge="1">
          <mxGeometry width="50" height="50" relative="1" as="geometry">
            <mxPoint x="120" as="sourcePoint" />
            <mxPoint x="160" y="60" as="targetPoint" />
          </mxGeometry>
        </mxCell>
        <mxCell id="R541b7eBRNCDeRxsf6V9-71" value="load" style="edgeLabel;html=1;align=center;verticalAlign=middle;resizable=0;points=[];fontSize=8;" parent="R541b7eBRNCDeRxsf6V9-70" vertex="1" connectable="0">
          <mxGeometry x="-0.1034" relative="1" as="geometry">
            <mxPoint as="offset" />
          </mxGeometry>
        </mxCell>
        <mxCell id="R541b7eBRNCDeRxsf6V9-72" value="" style="endArrow=classic;html=1;rounded=0;entryX=0;entryY=0.25;entryDx=0;entryDy=0;" parent="R541b7eBRNCDeRxsf6V9-67" target="R541b7eBRNCDeRxsf6V9-68" edge="1">
          <mxGeometry width="50" height="50" relative="1" as="geometry">
            <mxPoint y="80" as="sourcePoint" />
            <mxPoint x="150" y="90" as="targetPoint" />
          </mxGeometry>
        </mxCell>
        <mxCell id="R541b7eBRNCDeRxsf6V9-73" value="in (16 bits)" style="edgeLabel;html=1;align=center;verticalAlign=middle;resizable=0;points=[];fontSize=8;" parent="R541b7eBRNCDeRxsf6V9-72" vertex="1" connectable="0">
          <mxGeometry x="-0.0168" relative="1" as="geometry">
            <mxPoint as="offset" />
          </mxGeometry>
        </mxCell>
        <mxCell id="R541b7eBRNCDeRxsf6V9-74" value="" style="endArrow=classic;html=1;rounded=0;entryX=0;entryY=0.25;entryDx=0;entryDy=0;" parent="R541b7eBRNCDeRxsf6V9-67" edge="1">
          <mxGeometry width="50" height="50" relative="1" as="geometry">
            <mxPoint y="160" as="sourcePoint" />
            <mxPoint x="60" y="160" as="targetPoint" />
          </mxGeometry>
        </mxCell>
        <mxCell id="R541b7eBRNCDeRxsf6V9-75" value="address(3 bits)" style="edgeLabel;html=1;align=center;verticalAlign=middle;resizable=0;points=[];fontSize=7;" parent="R541b7eBRNCDeRxsf6V9-74" vertex="1" connectable="0">
          <mxGeometry x="-0.0168" relative="1" as="geometry">
            <mxPoint as="offset" />
          </mxGeometry>
        </mxCell>
        <mxCell id="R541b7eBRNCDeRxsf6V9-76" value="" style="endArrow=classic;html=1;rounded=0;entryX=0;entryY=0.25;entryDx=0;entryDy=0;" parent="R541b7eBRNCDeRxsf6V9-67" edge="1">
          <mxGeometry width="50" height="50" relative="1" as="geometry">
            <mxPoint x="180" y="119.75999999999999" as="sourcePoint" />
            <mxPoint x="240" y="119.75999999999999" as="targetPoint" />
          </mxGeometry>
        </mxCell>
        <mxCell id="R541b7eBRNCDeRxsf6V9-77" value="out (16 bits)" style="edgeLabel;html=1;align=center;verticalAlign=middle;resizable=0;points=[];fontSize=8;" parent="R541b7eBRNCDeRxsf6V9-76" vertex="1" connectable="0">
          <mxGeometry x="-0.0168" relative="1" as="geometry">
            <mxPoint as="offset" />
          </mxGeometry>
        </mxCell>
        <mxCell id="R541b7eBRNCDeRxsf6V9-78" value="" style="group" parent="1" vertex="1" connectable="0">
          <mxGeometry x="1380" y="1240" width="240" height="200" as="geometry" />
        </mxCell>
        <mxCell id="R541b7eBRNCDeRxsf6V9-79" value="RAM8" style="rounded=0;whiteSpace=wrap;html=1;" parent="R541b7eBRNCDeRxsf6V9-78" vertex="1">
          <mxGeometry x="60" y="40" width="120" height="160" as="geometry" />
        </mxCell>
        <mxCell id="R541b7eBRNCDeRxsf6V9-80" value="" style="triangle;whiteSpace=wrap;html=1;direction=north;" parent="R541b7eBRNCDeRxsf6V9-78" vertex="1">
          <mxGeometry x="107.5" y="180" width="25" height="20" as="geometry" />
        </mxCell>
        <mxCell id="R541b7eBRNCDeRxsf6V9-81" value="" style="endArrow=classic;html=1;rounded=0;entryX=0.5;entryY=0;entryDx=0;entryDy=0;" parent="R541b7eBRNCDeRxsf6V9-78" target="R541b7eBRNCDeRxsf6V9-79" edge="1">
          <mxGeometry width="50" height="50" relative="1" as="geometry">
            <mxPoint x="120" as="sourcePoint" />
            <mxPoint x="160" y="60" as="targetPoint" />
          </mxGeometry>
        </mxCell>
        <mxCell id="R541b7eBRNCDeRxsf6V9-82" value="load" style="edgeLabel;html=1;align=center;verticalAlign=middle;resizable=0;points=[];fontSize=8;" parent="R541b7eBRNCDeRxsf6V9-81" vertex="1" connectable="0">
          <mxGeometry x="-0.1034" relative="1" as="geometry">
            <mxPoint as="offset" />
          </mxGeometry>
        </mxCell>
        <mxCell id="R541b7eBRNCDeRxsf6V9-83" value="" style="endArrow=classic;html=1;rounded=0;entryX=0;entryY=0.25;entryDx=0;entryDy=0;" parent="R541b7eBRNCDeRxsf6V9-78" target="R541b7eBRNCDeRxsf6V9-79" edge="1">
          <mxGeometry width="50" height="50" relative="1" as="geometry">
            <mxPoint y="80" as="sourcePoint" />
            <mxPoint x="150" y="90" as="targetPoint" />
          </mxGeometry>
        </mxCell>
        <mxCell id="R541b7eBRNCDeRxsf6V9-84" value="in (16 bits)" style="edgeLabel;html=1;align=center;verticalAlign=middle;resizable=0;points=[];fontSize=8;" parent="R541b7eBRNCDeRxsf6V9-83" vertex="1" connectable="0">
          <mxGeometry x="-0.0168" relative="1" as="geometry">
            <mxPoint as="offset" />
          </mxGeometry>
        </mxCell>
        <mxCell id="R541b7eBRNCDeRxsf6V9-85" value="" style="endArrow=classic;html=1;rounded=0;entryX=0;entryY=0.25;entryDx=0;entryDy=0;" parent="R541b7eBRNCDeRxsf6V9-78" edge="1">
          <mxGeometry width="50" height="50" relative="1" as="geometry">
            <mxPoint y="160" as="sourcePoint" />
            <mxPoint x="60" y="160" as="targetPoint" />
          </mxGeometry>
        </mxCell>
        <mxCell id="R541b7eBRNCDeRxsf6V9-86" value="address(3 bits)" style="edgeLabel;html=1;align=center;verticalAlign=middle;resizable=0;points=[];fontSize=7;" parent="R541b7eBRNCDeRxsf6V9-85" vertex="1" connectable="0">
          <mxGeometry x="-0.0168" relative="1" as="geometry">
            <mxPoint as="offset" />
          </mxGeometry>
        </mxCell>
        <mxCell id="R541b7eBRNCDeRxsf6V9-87" value="" style="endArrow=classic;html=1;rounded=0;entryX=0;entryY=0.25;entryDx=0;entryDy=0;" parent="R541b7eBRNCDeRxsf6V9-78" edge="1">
          <mxGeometry width="50" height="50" relative="1" as="geometry">
            <mxPoint x="180" y="119.75999999999999" as="sourcePoint" />
            <mxPoint x="240" y="119.75999999999999" as="targetPoint" />
          </mxGeometry>
        </mxCell>
        <mxCell id="R541b7eBRNCDeRxsf6V9-88" value="out (16 bits)" style="edgeLabel;html=1;align=center;verticalAlign=middle;resizable=0;points=[];fontSize=8;" parent="R541b7eBRNCDeRxsf6V9-87" vertex="1" connectable="0">
          <mxGeometry x="-0.0168" relative="1" as="geometry">
            <mxPoint as="offset" />
          </mxGeometry>
        </mxCell>
        <mxCell id="R541b7eBRNCDeRxsf6V9-89" value="" style="group" parent="1" vertex="1" connectable="0">
          <mxGeometry x="1560" y="1440" width="240" height="200" as="geometry" />
        </mxCell>
        <mxCell id="R541b7eBRNCDeRxsf6V9-90" value="RAM8" style="rounded=0;whiteSpace=wrap;html=1;" parent="R541b7eBRNCDeRxsf6V9-89" vertex="1">
          <mxGeometry x="60" y="40" width="120" height="160" as="geometry" />
        </mxCell>
        <mxCell id="R541b7eBRNCDeRxsf6V9-91" value="" style="triangle;whiteSpace=wrap;html=1;direction=north;" parent="R541b7eBRNCDeRxsf6V9-89" vertex="1">
          <mxGeometry x="107.5" y="180" width="25" height="20" as="geometry" />
        </mxCell>
        <mxCell id="R541b7eBRNCDeRxsf6V9-92" value="" style="endArrow=classic;html=1;rounded=0;entryX=0.5;entryY=0;entryDx=0;entryDy=0;" parent="R541b7eBRNCDeRxsf6V9-89" target="R541b7eBRNCDeRxsf6V9-90" edge="1">
          <mxGeometry width="50" height="50" relative="1" as="geometry">
            <mxPoint x="120" as="sourcePoint" />
            <mxPoint x="160" y="60" as="targetPoint" />
          </mxGeometry>
        </mxCell>
        <mxCell id="R541b7eBRNCDeRxsf6V9-93" value="load" style="edgeLabel;html=1;align=center;verticalAlign=middle;resizable=0;points=[];fontSize=8;" parent="R541b7eBRNCDeRxsf6V9-92" vertex="1" connectable="0">
          <mxGeometry x="-0.1034" relative="1" as="geometry">
            <mxPoint as="offset" />
          </mxGeometry>
        </mxCell>
        <mxCell id="R541b7eBRNCDeRxsf6V9-94" value="" style="endArrow=classic;html=1;rounded=0;entryX=0;entryY=0.25;entryDx=0;entryDy=0;" parent="R541b7eBRNCDeRxsf6V9-89" target="R541b7eBRNCDeRxsf6V9-90" edge="1">
          <mxGeometry width="50" height="50" relative="1" as="geometry">
            <mxPoint y="80" as="sourcePoint" />
            <mxPoint x="150" y="90" as="targetPoint" />
          </mxGeometry>
        </mxCell>
        <mxCell id="R541b7eBRNCDeRxsf6V9-95" value="in (16 bits)" style="edgeLabel;html=1;align=center;verticalAlign=middle;resizable=0;points=[];fontSize=8;" parent="R541b7eBRNCDeRxsf6V9-94" vertex="1" connectable="0">
          <mxGeometry x="-0.0168" relative="1" as="geometry">
            <mxPoint as="offset" />
          </mxGeometry>
        </mxCell>
        <mxCell id="R541b7eBRNCDeRxsf6V9-96" value="" style="endArrow=classic;html=1;rounded=0;entryX=0;entryY=0.25;entryDx=0;entryDy=0;" parent="R541b7eBRNCDeRxsf6V9-89" edge="1">
          <mxGeometry width="50" height="50" relative="1" as="geometry">
            <mxPoint y="160" as="sourcePoint" />
            <mxPoint x="60" y="160" as="targetPoint" />
          </mxGeometry>
        </mxCell>
        <mxCell id="R541b7eBRNCDeRxsf6V9-97" value="address(3 bits)" style="edgeLabel;html=1;align=center;verticalAlign=middle;resizable=0;points=[];fontSize=7;" parent="R541b7eBRNCDeRxsf6V9-96" vertex="1" connectable="0">
          <mxGeometry x="-0.0168" relative="1" as="geometry">
            <mxPoint as="offset" />
          </mxGeometry>
        </mxCell>
        <mxCell id="R541b7eBRNCDeRxsf6V9-98" value="" style="endArrow=classic;html=1;rounded=0;entryX=0;entryY=0.25;entryDx=0;entryDy=0;" parent="R541b7eBRNCDeRxsf6V9-89" edge="1">
          <mxGeometry width="50" height="50" relative="1" as="geometry">
            <mxPoint x="180" y="119.75999999999999" as="sourcePoint" />
            <mxPoint x="240" y="119.75999999999999" as="targetPoint" />
          </mxGeometry>
        </mxCell>
        <mxCell id="R541b7eBRNCDeRxsf6V9-99" value="out (16 bits)" style="edgeLabel;html=1;align=center;verticalAlign=middle;resizable=0;points=[];fontSize=8;" parent="R541b7eBRNCDeRxsf6V9-98" vertex="1" connectable="0">
          <mxGeometry x="-0.0168" relative="1" as="geometry">
            <mxPoint as="offset" />
          </mxGeometry>
        </mxCell>
        <mxCell id="R541b7eBRNCDeRxsf6V9-100" value="" style="group" parent="1" vertex="1" connectable="0">
          <mxGeometry x="1740" y="1640" width="240" height="200" as="geometry" />
        </mxCell>
        <mxCell id="R541b7eBRNCDeRxsf6V9-101" value="RAM8" style="rounded=0;whiteSpace=wrap;html=1;" parent="R541b7eBRNCDeRxsf6V9-100" vertex="1">
          <mxGeometry x="60" y="40" width="120" height="160" as="geometry" />
        </mxCell>
        <mxCell id="R541b7eBRNCDeRxsf6V9-102" value="" style="triangle;whiteSpace=wrap;html=1;direction=north;" parent="R541b7eBRNCDeRxsf6V9-100" vertex="1">
          <mxGeometry x="107.5" y="180" width="25" height="20" as="geometry" />
        </mxCell>
        <mxCell id="R541b7eBRNCDeRxsf6V9-103" value="" style="endArrow=classic;html=1;rounded=0;entryX=0.5;entryY=0;entryDx=0;entryDy=0;" parent="R541b7eBRNCDeRxsf6V9-100" target="R541b7eBRNCDeRxsf6V9-101" edge="1">
          <mxGeometry width="50" height="50" relative="1" as="geometry">
            <mxPoint x="120" as="sourcePoint" />
            <mxPoint x="160" y="60" as="targetPoint" />
          </mxGeometry>
        </mxCell>
        <mxCell id="R541b7eBRNCDeRxsf6V9-104" value="load" style="edgeLabel;html=1;align=center;verticalAlign=middle;resizable=0;points=[];fontSize=8;" parent="R541b7eBRNCDeRxsf6V9-103" vertex="1" connectable="0">
          <mxGeometry x="-0.1034" relative="1" as="geometry">
            <mxPoint as="offset" />
          </mxGeometry>
        </mxCell>
        <mxCell id="R541b7eBRNCDeRxsf6V9-105" value="" style="endArrow=classic;html=1;rounded=0;entryX=0;entryY=0.25;entryDx=0;entryDy=0;" parent="R541b7eBRNCDeRxsf6V9-100" target="R541b7eBRNCDeRxsf6V9-101" edge="1">
          <mxGeometry width="50" height="50" relative="1" as="geometry">
            <mxPoint y="80" as="sourcePoint" />
            <mxPoint x="150" y="90" as="targetPoint" />
          </mxGeometry>
        </mxCell>
        <mxCell id="R541b7eBRNCDeRxsf6V9-106" value="in (16 bits)" style="edgeLabel;html=1;align=center;verticalAlign=middle;resizable=0;points=[];fontSize=8;" parent="R541b7eBRNCDeRxsf6V9-105" vertex="1" connectable="0">
          <mxGeometry x="-0.0168" relative="1" as="geometry">
            <mxPoint as="offset" />
          </mxGeometry>
        </mxCell>
        <mxCell id="R541b7eBRNCDeRxsf6V9-107" value="" style="endArrow=classic;html=1;rounded=0;entryX=0;entryY=0.25;entryDx=0;entryDy=0;" parent="R541b7eBRNCDeRxsf6V9-100" edge="1">
          <mxGeometry width="50" height="50" relative="1" as="geometry">
            <mxPoint y="160" as="sourcePoint" />
            <mxPoint x="60" y="160" as="targetPoint" />
          </mxGeometry>
        </mxCell>
        <mxCell id="R541b7eBRNCDeRxsf6V9-108" value="address(3 bits)" style="edgeLabel;html=1;align=center;verticalAlign=middle;resizable=0;points=[];fontSize=7;" parent="R541b7eBRNCDeRxsf6V9-107" vertex="1" connectable="0">
          <mxGeometry x="-0.0168" relative="1" as="geometry">
            <mxPoint as="offset" />
          </mxGeometry>
        </mxCell>
        <mxCell id="R541b7eBRNCDeRxsf6V9-109" value="" style="endArrow=classic;html=1;rounded=0;entryX=0;entryY=0.25;entryDx=0;entryDy=0;" parent="R541b7eBRNCDeRxsf6V9-100" edge="1">
          <mxGeometry width="50" height="50" relative="1" as="geometry">
            <mxPoint x="180" y="119.75999999999999" as="sourcePoint" />
            <mxPoint x="240" y="119.75999999999999" as="targetPoint" />
          </mxGeometry>
        </mxCell>
        <mxCell id="R541b7eBRNCDeRxsf6V9-110" value="out (16 bits)" style="edgeLabel;html=1;align=center;verticalAlign=middle;resizable=0;points=[];fontSize=8;" parent="R541b7eBRNCDeRxsf6V9-109" vertex="1" connectable="0">
          <mxGeometry x="-0.0168" relative="1" as="geometry">
            <mxPoint as="offset" />
          </mxGeometry>
        </mxCell>
        <mxCell id="TFNxjJuRCr5In51Jymzm-67" style="edgeStyle=orthogonalEdgeStyle;rounded=0;orthogonalLoop=1;jettySize=auto;html=1;" edge="1" parent="1" source="Qjs1h0OX-HIhjmdxqaut-1">
          <mxGeometry relative="1" as="geometry">
            <mxPoint x="2400" y="890" as="targetPoint" />
          </mxGeometry>
        </mxCell>
        <mxCell id="Qjs1h0OX-HIhjmdxqaut-1" value="Mux8Way16" style="triangle;whiteSpace=wrap;html=1;container=0;" parent="1" vertex="1">
          <mxGeometry x="2160" y="770" width="160" height="240" as="geometry" />
        </mxCell>
        <mxCell id="Qjs1h0OX-HIhjmdxqaut-2" value="" style="endArrow=classic;html=1;rounded=0;" parent="1" edge="1">
          <mxGeometry width="50" height="50" relative="1" as="geometry">
            <mxPoint x="70" y="200" as="sourcePoint" />
            <mxPoint x="200" y="200" as="targetPoint" />
          </mxGeometry>
        </mxCell>
        <mxCell id="Qjs1h0OX-HIhjmdxqaut-3" value="address (6 bits)" style="edgeLabel;html=1;align=center;verticalAlign=middle;resizable=0;points=[];fontSize=15;" parent="Qjs1h0OX-HIhjmdxqaut-2" vertex="1" connectable="0">
          <mxGeometry x="-0.0207" relative="1" as="geometry">
            <mxPoint as="offset" />
          </mxGeometry>
        </mxCell>
        <mxCell id="TFNxjJuRCr5In51Jymzm-1" value="" style="endArrow=classic;html=1;rounded=0;" edge="1" parent="1">
          <mxGeometry width="50" height="50" relative="1" as="geometry">
            <mxPoint x="70" y="-50" as="sourcePoint" />
            <mxPoint x="200" y="-50" as="targetPoint" />
          </mxGeometry>
        </mxCell>
        <mxCell id="TFNxjJuRCr5In51Jymzm-2" value="load" style="edgeLabel;html=1;align=center;verticalAlign=middle;resizable=0;points=[];fontSize=15;" vertex="1" connectable="0" parent="TFNxjJuRCr5In51Jymzm-1">
          <mxGeometry x="-0.0207" relative="1" as="geometry">
            <mxPoint as="offset" />
          </mxGeometry>
        </mxCell>
        <mxCell id="TFNxjJuRCr5In51Jymzm-3" value="" style="endArrow=classic;html=1;rounded=0;edgeStyle=orthogonalEdgeStyle;strokeColor=#FF0000;" edge="1" parent="1">
          <mxGeometry width="50" height="50" relative="1" as="geometry">
            <mxPoint x="520" y="50" as="sourcePoint" />
            <mxPoint x="600" y="240" as="targetPoint" />
          </mxGeometry>
        </mxCell>
        <mxCell id="TFNxjJuRCr5In51Jymzm-4" value="" style="endArrow=classic;html=1;rounded=0;edgeStyle=orthogonalEdgeStyle;strokeColor=#FF8000;" edge="1" parent="1">
          <mxGeometry width="50" height="50" relative="1" as="geometry">
            <mxPoint x="520" y="20" as="sourcePoint" />
            <mxPoint x="780" y="440" as="targetPoint" />
          </mxGeometry>
        </mxCell>
        <mxCell id="TFNxjJuRCr5In51Jymzm-5" value="" style="endArrow=classic;html=1;rounded=0;edgeStyle=orthogonalEdgeStyle;strokeColor=#FFFF00;" edge="1" parent="1">
          <mxGeometry width="50" height="50" relative="1" as="geometry">
            <mxPoint x="520" y="-10" as="sourcePoint" />
            <mxPoint x="960" y="640" as="targetPoint" />
          </mxGeometry>
        </mxCell>
        <mxCell id="TFNxjJuRCr5In51Jymzm-6" value="" style="endArrow=classic;html=1;rounded=0;edgeStyle=orthogonalEdgeStyle;strokeColor=#80FF00;" edge="1" parent="1">
          <mxGeometry width="50" height="50" relative="1" as="geometry">
            <mxPoint x="520" y="-40" as="sourcePoint" />
            <mxPoint x="1140" y="840" as="targetPoint" />
          </mxGeometry>
        </mxCell>
        <mxCell id="TFNxjJuRCr5In51Jymzm-7" value="" style="endArrow=classic;html=1;rounded=0;edgeStyle=orthogonalEdgeStyle;strokeColor=#00FFFF;" edge="1" parent="1">
          <mxGeometry width="50" height="50" relative="1" as="geometry">
            <mxPoint x="520" y="-60" as="sourcePoint" />
            <mxPoint x="1320" y="1040" as="targetPoint" />
          </mxGeometry>
        </mxCell>
        <mxCell id="TFNxjJuRCr5In51Jymzm-8" value="" style="endArrow=classic;html=1;rounded=0;edgeStyle=orthogonalEdgeStyle;strokeColor=#0000FF;" edge="1" parent="1">
          <mxGeometry width="50" height="50" relative="1" as="geometry">
            <mxPoint x="520" y="-90" as="sourcePoint" />
            <mxPoint x="1500" y="1240" as="targetPoint" />
          </mxGeometry>
        </mxCell>
        <mxCell id="TFNxjJuRCr5In51Jymzm-9" value="" style="endArrow=classic;html=1;rounded=0;edgeStyle=orthogonalEdgeStyle;strokeColor=#7F00FF;" edge="1" parent="1">
          <mxGeometry width="50" height="50" relative="1" as="geometry">
            <mxPoint x="520" y="-120" as="sourcePoint" />
            <mxPoint x="1680" y="1444.8855590820312" as="targetPoint" />
          </mxGeometry>
        </mxCell>
        <mxCell id="TFNxjJuRCr5In51Jymzm-10" value="" style="endArrow=classic;html=1;rounded=0;edgeStyle=orthogonalEdgeStyle;strokeColor=#FF00FF;" edge="1" parent="1">
          <mxGeometry width="50" height="50" relative="1" as="geometry">
            <mxPoint x="520" y="-150" as="sourcePoint" />
            <mxPoint x="1860" y="1640" as="targetPoint" />
          </mxGeometry>
        </mxCell>
        <mxCell id="TFNxjJuRCr5In51Jymzm-11" value="" style="endArrow=classic;html=1;rounded=0;edgeStyle=orthogonalEdgeStyle;entryX=-0.006;entryY=0.952;entryDx=0;entryDy=0;entryPerimeter=0;" edge="1" parent="1" target="Qjs1h0OX-HIhjmdxqaut-1">
          <mxGeometry width="50" height="50" relative="1" as="geometry">
            <mxPoint x="1980" y="1760" as="sourcePoint" />
            <mxPoint x="2030" y="1710" as="targetPoint" />
          </mxGeometry>
        </mxCell>
        <mxCell id="TFNxjJuRCr5In51Jymzm-12" value="" style="endArrow=classic;html=1;rounded=0;edgeStyle=orthogonalEdgeStyle;" edge="1" parent="1">
          <mxGeometry width="50" height="50" relative="1" as="geometry">
            <mxPoint x="1800" y="1560" as="sourcePoint" />
            <mxPoint x="2160" y="970" as="targetPoint" />
            <Array as="points">
              <mxPoint x="2000" y="1560" />
              <mxPoint x="2000" y="970" />
              <mxPoint x="2160" y="970" />
            </Array>
          </mxGeometry>
        </mxCell>
        <mxCell id="TFNxjJuRCr5In51Jymzm-13" value="" style="endArrow=classic;html=1;rounded=0;edgeStyle=orthogonalEdgeStyle;" edge="1" parent="1">
          <mxGeometry width="50" height="50" relative="1" as="geometry">
            <mxPoint x="1620" y="1360" as="sourcePoint" />
            <mxPoint x="2161" y="940" as="targetPoint" />
            <Array as="points">
              <mxPoint x="1820" y="1360" />
              <mxPoint x="1820" y="940" />
              <mxPoint x="2161" y="940" />
            </Array>
          </mxGeometry>
        </mxCell>
        <mxCell id="TFNxjJuRCr5In51Jymzm-14" value="" style="endArrow=classic;html=1;rounded=0;edgeStyle=orthogonalEdgeStyle;entryX=-0.006;entryY=0.582;entryDx=0;entryDy=0;entryPerimeter=0;" edge="1" parent="1" target="Qjs1h0OX-HIhjmdxqaut-1">
          <mxGeometry width="50" height="50" relative="1" as="geometry">
            <mxPoint x="1440" y="1160" as="sourcePoint" />
            <mxPoint x="1981" y="760" as="targetPoint" />
            <Array as="points">
              <mxPoint x="1640" y="1160" />
              <mxPoint x="1640" y="910" />
            </Array>
          </mxGeometry>
        </mxCell>
        <mxCell id="TFNxjJuRCr5In51Jymzm-15" value="" style="endArrow=classic;html=1;rounded=0;edgeStyle=orthogonalEdgeStyle;entryX=-0.001;entryY=0.414;entryDx=0;entryDy=0;entryPerimeter=0;" edge="1" parent="1" target="Qjs1h0OX-HIhjmdxqaut-1">
          <mxGeometry width="50" height="50" relative="1" as="geometry">
            <mxPoint x="1261" y="960" as="sourcePoint" />
            <mxPoint x="1980" y="710" as="targetPoint" />
            <Array as="points">
              <mxPoint x="1461" y="960" />
              <mxPoint x="1461" y="870" />
              <mxPoint x="2160" y="870" />
            </Array>
          </mxGeometry>
        </mxCell>
        <mxCell id="TFNxjJuRCr5In51Jymzm-16" value="" style="endArrow=classic;html=1;rounded=0;edgeStyle=orthogonalEdgeStyle;entryX=-0.004;entryY=0.29;entryDx=0;entryDy=0;entryPerimeter=0;" edge="1" parent="1" target="Qjs1h0OX-HIhjmdxqaut-1">
          <mxGeometry width="50" height="50" relative="1" as="geometry">
            <mxPoint x="1081" y="761" as="sourcePoint" />
            <mxPoint x="1980" y="670" as="targetPoint" />
            <Array as="points">
              <mxPoint x="1460" y="761" />
              <mxPoint x="1460" y="840" />
            </Array>
          </mxGeometry>
        </mxCell>
        <mxCell id="TFNxjJuRCr5In51Jymzm-17" value="" style="endArrow=classic;html=1;rounded=0;edgeStyle=orthogonalEdgeStyle;entryX=-0.006;entryY=0.159;entryDx=0;entryDy=0;entryPerimeter=0;" edge="1" parent="1" target="Qjs1h0OX-HIhjmdxqaut-1">
          <mxGeometry width="50" height="50" relative="1" as="geometry">
            <mxPoint x="900" y="561" as="sourcePoint" />
            <mxPoint x="1978" y="640" as="targetPoint" />
            <Array as="points">
              <mxPoint x="1640" y="561" />
              <mxPoint x="1640" y="808" />
            </Array>
          </mxGeometry>
        </mxCell>
        <mxCell id="TFNxjJuRCr5In51Jymzm-18" value="" style="endArrow=classic;html=1;rounded=0;edgeStyle=orthogonalEdgeStyle;entryX=-0.007;entryY=0.035;entryDx=0;entryDy=0;entryPerimeter=0;" edge="1" parent="1" target="Qjs1h0OX-HIhjmdxqaut-1">
          <mxGeometry width="50" height="50" relative="1" as="geometry">
            <mxPoint x="720" y="360" as="sourcePoint" />
            <mxPoint x="1979" y="607" as="targetPoint" />
            <Array as="points">
              <mxPoint x="1820" y="360" />
              <mxPoint x="1820" y="778" />
            </Array>
          </mxGeometry>
        </mxCell>
        <mxCell id="TFNxjJuRCr5In51Jymzm-19" value="" style="endArrow=classic;html=1;rounded=0;edgeStyle=orthogonalEdgeStyle;entryX=0;entryY=0.5;entryDx=0;entryDy=0;entryPerimeter=0;" edge="1" parent="1" target="TFNxjJuRCr5In51Jymzm-24">
          <mxGeometry width="50" height="50" relative="1" as="geometry">
            <mxPoint x="200" y="200" as="sourcePoint" />
            <mxPoint x="440" y="150" as="targetPoint" />
          </mxGeometry>
        </mxCell>
        <mxCell id="TFNxjJuRCr5In51Jymzm-27" value="[3]" style="edgeLabel;html=1;align=center;verticalAlign=middle;resizable=0;points=[];" vertex="1" connectable="0" parent="TFNxjJuRCr5In51Jymzm-19">
          <mxGeometry x="0.8163" relative="1" as="geometry">
            <mxPoint as="offset" />
          </mxGeometry>
        </mxCell>
        <mxCell id="TFNxjJuRCr5In51Jymzm-20" value="" style="endArrow=classic;html=1;rounded=0;edgeStyle=orthogonalEdgeStyle;" edge="1" parent="1" target="TFNxjJuRCr5In51Jymzm-22">
          <mxGeometry width="50" height="50" relative="1" as="geometry">
            <mxPoint x="200" y="200" as="sourcePoint" />
            <mxPoint x="400" y="150" as="targetPoint" />
          </mxGeometry>
        </mxCell>
        <mxCell id="TFNxjJuRCr5In51Jymzm-26" value="[4]" style="edgeLabel;html=1;align=center;verticalAlign=middle;resizable=0;points=[];" vertex="1" connectable="0" parent="TFNxjJuRCr5In51Jymzm-20">
          <mxGeometry x="0.7875" relative="1" as="geometry">
            <mxPoint as="offset" />
          </mxGeometry>
        </mxCell>
        <mxCell id="TFNxjJuRCr5In51Jymzm-21" value="" style="endArrow=classic;html=1;rounded=0;edgeStyle=orthogonalEdgeStyle;" edge="1" parent="1">
          <mxGeometry width="50" height="50" relative="1" as="geometry">
            <mxPoint x="200" y="200" as="sourcePoint" />
            <mxPoint x="360" y="150" as="targetPoint" />
          </mxGeometry>
        </mxCell>
        <mxCell id="TFNxjJuRCr5In51Jymzm-25" value="[5]" style="edgeLabel;html=1;align=center;verticalAlign=middle;resizable=0;points=[];" vertex="1" connectable="0" parent="TFNxjJuRCr5In51Jymzm-21">
          <mxGeometry x="0.7557" y="-1" relative="1" as="geometry">
            <mxPoint x="-1" as="offset" />
          </mxGeometry>
        </mxCell>
        <mxCell id="TFNxjJuRCr5In51Jymzm-22" value="" style="verticalLabelPosition=bottom;shadow=0;dashed=0;align=center;html=1;verticalAlign=top;shape=mxgraph.electrical.logic_gates.inverter_2;direction=north;" vertex="1" parent="1">
          <mxGeometry x="390" y="100" width="30" height="50" as="geometry" />
        </mxCell>
        <mxCell id="Qjs1h0OX-HIhjmdxqaut-13" value="" style="endArrow=classic;html=1;rounded=0;entryX=0.375;entryY=0.174;entryDx=0;entryDy=0;entryPerimeter=0;exitX=1;exitY=0.5;exitDx=0;exitDy=0;exitPerimeter=0;" parent="1" target="Qjs1h0OX-HIhjmdxqaut-5" edge="1" source="TFNxjJuRCr5In51Jymzm-22">
          <mxGeometry width="50" height="50" relative="1" as="geometry">
            <mxPoint x="419.9999999999999" y="115.12" as="sourcePoint" />
            <mxPoint x="414.0000000000002" y="40.00000000000011" as="targetPoint" />
          </mxGeometry>
        </mxCell>
        <mxCell id="Qjs1h0OX-HIhjmdxqaut-14" value="sel[1]" style="edgeLabel;html=1;align=center;verticalAlign=middle;resizable=0;points=[];" parent="Qjs1h0OX-HIhjmdxqaut-13" vertex="1" connectable="0">
          <mxGeometry x="0.0274" relative="1" as="geometry">
            <mxPoint y="17" as="offset" />
          </mxGeometry>
        </mxCell>
        <mxCell id="TFNxjJuRCr5In51Jymzm-23" value="" style="verticalLabelPosition=bottom;shadow=0;dashed=0;align=center;html=1;verticalAlign=top;shape=mxgraph.electrical.logic_gates.inverter_2;direction=north;" vertex="1" parent="1">
          <mxGeometry x="345" y="100" width="30" height="50" as="geometry" />
        </mxCell>
        <mxCell id="TFNxjJuRCr5In51Jymzm-24" value="" style="verticalLabelPosition=bottom;shadow=0;dashed=0;align=center;html=1;verticalAlign=top;shape=mxgraph.electrical.logic_gates.inverter_2;direction=north;" vertex="1" parent="1">
          <mxGeometry x="430" y="100" width="30" height="50" as="geometry" />
        </mxCell>
        <mxCell id="Qjs1h0OX-HIhjmdxqaut-5" value="DMux8Way" style="triangle;whiteSpace=wrap;html=1;direction=west;" parent="1" vertex="1">
          <mxGeometry x="280" y="-170" width="200" height="240" as="geometry" />
        </mxCell>
        <mxCell id="Qjs1h0OX-HIhjmdxqaut-6" value="" style="endArrow=classic;html=1;rounded=0;entryX=1;entryY=0.5;entryDx=0;entryDy=0;" parent="1" target="Qjs1h0OX-HIhjmdxqaut-5" edge="1">
          <mxGeometry width="50" height="50" relative="1" as="geometry">
            <mxPoint x="200" y="-50" as="sourcePoint" />
            <mxPoint x="300" y="-160" as="targetPoint" />
          </mxGeometry>
        </mxCell>
        <mxCell id="Qjs1h0OX-HIhjmdxqaut-7" value="" style="endArrow=none;html=1;rounded=0;entryX=1;entryY=0.5;entryDx=0;entryDy=0;startFill=0;" parent="1" edge="1">
          <mxGeometry width="50" height="50" relative="1" as="geometry">
            <mxPoint x="480" y="-150" as="sourcePoint" />
            <mxPoint x="520" y="-150" as="targetPoint" />
          </mxGeometry>
        </mxCell>
        <mxCell id="Qjs1h0OX-HIhjmdxqaut-8" value="" style="endArrow=none;html=1;rounded=0;entryX=1;entryY=0.5;entryDx=0;entryDy=0;startFill=0;" parent="1" edge="1">
          <mxGeometry width="50" height="50" relative="1" as="geometry">
            <mxPoint x="480" y="-120" as="sourcePoint" />
            <mxPoint x="520" y="-120" as="targetPoint" />
          </mxGeometry>
        </mxCell>
        <mxCell id="Qjs1h0OX-HIhjmdxqaut-9" value="" style="endArrow=classic;html=1;rounded=0;entryX=0.5;entryY=0;entryDx=0;entryDy=0;" parent="1" edge="1">
          <mxGeometry width="50" height="50" relative="1" as="geometry">
            <mxPoint x="444.83" y="100" as="sourcePoint" />
            <mxPoint x="444.83" y="50" as="targetPoint" />
          </mxGeometry>
        </mxCell>
        <mxCell id="Qjs1h0OX-HIhjmdxqaut-10" value="sel[0]" style="edgeLabel;html=1;align=center;verticalAlign=middle;resizable=0;points=[];" parent="Qjs1h0OX-HIhjmdxqaut-9" vertex="1" connectable="0">
          <mxGeometry x="0.0274" relative="1" as="geometry">
            <mxPoint y="6" as="offset" />
          </mxGeometry>
        </mxCell>
        <mxCell id="Qjs1h0OX-HIhjmdxqaut-11" value="" style="endArrow=none;html=1;rounded=0;entryX=1;entryY=0.5;entryDx=0;entryDy=0;startFill=0;" parent="1" edge="1">
          <mxGeometry width="50" height="50" relative="1" as="geometry">
            <mxPoint x="480" y="-90" as="sourcePoint" />
            <mxPoint x="520" y="-90" as="targetPoint" />
          </mxGeometry>
        </mxCell>
        <mxCell id="Qjs1h0OX-HIhjmdxqaut-12" value="" style="endArrow=none;html=1;rounded=0;entryX=1;entryY=0.5;entryDx=0;entryDy=0;startFill=0;" parent="1" edge="1">
          <mxGeometry width="50" height="50" relative="1" as="geometry">
            <mxPoint x="480" y="-60" as="sourcePoint" />
            <mxPoint x="520" y="-60" as="targetPoint" />
          </mxGeometry>
        </mxCell>
        <mxCell id="Qjs1h0OX-HIhjmdxqaut-15" value="" style="endArrow=none;html=1;rounded=0;entryX=1;entryY=0.5;entryDx=0;entryDy=0;startFill=0;" parent="1" edge="1">
          <mxGeometry width="50" height="50" relative="1" as="geometry">
            <mxPoint x="480" y="50" as="sourcePoint" />
            <mxPoint x="520" y="50" as="targetPoint" />
          </mxGeometry>
        </mxCell>
        <mxCell id="Qjs1h0OX-HIhjmdxqaut-16" value="" style="endArrow=none;html=1;rounded=0;entryX=1;entryY=0.5;entryDx=0;entryDy=0;startFill=0;" parent="1" edge="1">
          <mxGeometry width="50" height="50" relative="1" as="geometry">
            <mxPoint x="480" y="20" as="sourcePoint" />
            <mxPoint x="520" y="20" as="targetPoint" />
          </mxGeometry>
        </mxCell>
        <mxCell id="Qjs1h0OX-HIhjmdxqaut-17" value="" style="endArrow=none;html=1;rounded=0;entryX=1;entryY=0.5;entryDx=0;entryDy=0;startFill=0;" parent="1" edge="1">
          <mxGeometry width="50" height="50" relative="1" as="geometry">
            <mxPoint x="480" y="-10" as="sourcePoint" />
            <mxPoint x="520" y="-10" as="targetPoint" />
          </mxGeometry>
        </mxCell>
        <mxCell id="Qjs1h0OX-HIhjmdxqaut-18" value="" style="endArrow=none;html=1;rounded=0;entryX=1;entryY=0.5;entryDx=0;entryDy=0;startFill=0;" parent="1" edge="1">
          <mxGeometry width="50" height="50" relative="1" as="geometry">
            <mxPoint x="480" y="-40" as="sourcePoint" />
            <mxPoint x="520" y="-40" as="targetPoint" />
          </mxGeometry>
        </mxCell>
        <mxCell id="Qjs1h0OX-HIhjmdxqaut-19" value="" style="endArrow=classic;html=1;rounded=0;entryX=0.405;entryY=0.188;entryDx=0;entryDy=0;entryPerimeter=0;" parent="1" edge="1">
          <mxGeometry width="50" height="50" relative="1" as="geometry">
            <mxPoint x="360" y="100" as="sourcePoint" />
            <mxPoint x="360" y="-5" as="targetPoint" />
          </mxGeometry>
        </mxCell>
        <mxCell id="Qjs1h0OX-HIhjmdxqaut-20" value="sel[2]" style="edgeLabel;html=1;align=center;verticalAlign=middle;resizable=0;points=[];" parent="Qjs1h0OX-HIhjmdxqaut-19" vertex="1" connectable="0">
          <mxGeometry x="0.0274" relative="1" as="geometry">
            <mxPoint y="34" as="offset" />
          </mxGeometry>
        </mxCell>
        <mxCell id="TFNxjJuRCr5In51Jymzm-28" value="" style="endArrow=classic;html=1;rounded=0;edgeStyle=orthogonalEdgeStyle;" edge="1" parent="1">
          <mxGeometry width="50" height="50" relative="1" as="geometry">
            <mxPoint x="200" y="200" as="sourcePoint" />
            <mxPoint x="480" y="400" as="targetPoint" />
            <Array as="points">
              <mxPoint x="200" y="201" />
              <mxPoint x="280" y="201" />
              <mxPoint x="280" y="400" />
            </Array>
          </mxGeometry>
        </mxCell>
        <mxCell id="TFNxjJuRCr5In51Jymzm-30" value="" style="endArrow=classic;html=1;rounded=0;edgeStyle=orthogonalEdgeStyle;" edge="1" parent="1">
          <mxGeometry width="50" height="50" relative="1" as="geometry">
            <mxPoint x="200" y="200" as="sourcePoint" />
            <mxPoint x="660" y="600" as="targetPoint" />
            <Array as="points">
              <mxPoint x="200" y="201" />
              <mxPoint x="280" y="201" />
              <mxPoint x="280" y="600" />
              <mxPoint x="480" y="600" />
            </Array>
          </mxGeometry>
        </mxCell>
        <mxCell id="TFNxjJuRCr5In51Jymzm-31" value="" style="endArrow=classic;html=1;rounded=0;edgeStyle=orthogonalEdgeStyle;" edge="1" parent="1">
          <mxGeometry width="50" height="50" relative="1" as="geometry">
            <mxPoint x="200" y="200" as="sourcePoint" />
            <mxPoint x="840" y="800" as="targetPoint" />
            <Array as="points">
              <mxPoint x="280" y="201" />
              <mxPoint x="280" y="800" />
              <mxPoint x="660" y="800" />
            </Array>
          </mxGeometry>
        </mxCell>
        <mxCell id="TFNxjJuRCr5In51Jymzm-32" value="" style="endArrow=classic;html=1;rounded=0;edgeStyle=orthogonalEdgeStyle;" edge="1" parent="1">
          <mxGeometry width="50" height="50" relative="1" as="geometry">
            <mxPoint x="200" y="200" as="sourcePoint" />
            <mxPoint x="1020" y="1000" as="targetPoint" />
            <Array as="points">
              <mxPoint x="280" y="200" />
              <mxPoint x="280" y="1000" />
              <mxPoint x="840" y="1000" />
            </Array>
          </mxGeometry>
        </mxCell>
        <mxCell id="TFNxjJuRCr5In51Jymzm-33" value="" style="endArrow=classic;html=1;rounded=0;edgeStyle=orthogonalEdgeStyle;" edge="1" parent="1">
          <mxGeometry width="50" height="50" relative="1" as="geometry">
            <mxPoint x="200" y="200" as="sourcePoint" />
            <mxPoint x="1200" y="1200" as="targetPoint" />
            <Array as="points">
              <mxPoint x="280" y="200" />
              <mxPoint x="280" y="1200" />
              <mxPoint x="1020" y="1200" />
            </Array>
          </mxGeometry>
        </mxCell>
        <mxCell id="TFNxjJuRCr5In51Jymzm-34" value="" style="endArrow=classic;html=1;rounded=0;edgeStyle=orthogonalEdgeStyle;" edge="1" parent="1">
          <mxGeometry width="50" height="50" relative="1" as="geometry">
            <mxPoint x="200" y="200" as="sourcePoint" />
            <mxPoint x="1380" y="1400" as="targetPoint" />
            <Array as="points">
              <mxPoint x="280" y="200" />
              <mxPoint x="280" y="1400" />
              <mxPoint x="1200" y="1400" />
            </Array>
          </mxGeometry>
        </mxCell>
        <mxCell id="TFNxjJuRCr5In51Jymzm-35" value="" style="endArrow=classic;html=1;rounded=0;edgeStyle=orthogonalEdgeStyle;" edge="1" parent="1">
          <mxGeometry width="50" height="50" relative="1" as="geometry">
            <mxPoint x="200" y="200" as="sourcePoint" />
            <mxPoint x="1560" y="1600" as="targetPoint" />
            <Array as="points">
              <mxPoint x="280" y="200" />
              <mxPoint x="280" y="1600" />
              <mxPoint x="1380" y="1600" />
            </Array>
          </mxGeometry>
        </mxCell>
        <mxCell id="TFNxjJuRCr5In51Jymzm-36" value="" style="endArrow=classic;html=1;rounded=0;edgeStyle=orthogonalEdgeStyle;" edge="1" parent="1">
          <mxGeometry width="50" height="50" relative="1" as="geometry">
            <mxPoint x="200" y="200" as="sourcePoint" />
            <mxPoint x="1740" y="1800" as="targetPoint" />
            <Array as="points">
              <mxPoint x="280" y="200" />
              <mxPoint x="280" y="1800" />
              <mxPoint x="1560" y="1800" />
            </Array>
          </mxGeometry>
        </mxCell>
        <mxCell id="TFNxjJuRCr5In51Jymzm-37" value="[0..2]" style="edgeLabel;html=1;align=center;verticalAlign=middle;resizable=0;points=[];" vertex="1" connectable="0" parent="TFNxjJuRCr5In51Jymzm-36">
          <mxGeometry x="-0.9082" y="-1" relative="1" as="geometry">
            <mxPoint as="offset" />
          </mxGeometry>
        </mxCell>
        <mxCell id="TFNxjJuRCr5In51Jymzm-39" value="" style="endArrow=classic;html=1;rounded=0;" edge="1" parent="1">
          <mxGeometry width="50" height="50" relative="1" as="geometry">
            <mxPoint x="70" y="1020" as="sourcePoint" />
            <mxPoint x="200" y="1020" as="targetPoint" />
          </mxGeometry>
        </mxCell>
        <mxCell id="TFNxjJuRCr5In51Jymzm-40" value="in (16 bits)" style="edgeLabel;html=1;align=center;verticalAlign=middle;resizable=0;points=[];fontSize=15;" vertex="1" connectable="0" parent="TFNxjJuRCr5In51Jymzm-39">
          <mxGeometry x="-0.0207" relative="1" as="geometry">
            <mxPoint as="offset" />
          </mxGeometry>
        </mxCell>
        <mxCell id="TFNxjJuRCr5In51Jymzm-41" value="" style="endArrow=none;html=1;rounded=0;edgeStyle=orthogonalEdgeStyle;startFill=0;" edge="1" parent="1">
          <mxGeometry width="50" height="50" relative="1" as="geometry">
            <mxPoint x="200" y="1020" as="sourcePoint" />
            <mxPoint x="240" y="320" as="targetPoint" />
            <Array as="points">
              <mxPoint x="240" y="1021" />
            </Array>
          </mxGeometry>
        </mxCell>
        <mxCell id="TFNxjJuRCr5In51Jymzm-42" value="" style="endArrow=none;html=1;rounded=0;edgeStyle=orthogonalEdgeStyle;startFill=0;" edge="1" parent="1">
          <mxGeometry width="50" height="50" relative="1" as="geometry">
            <mxPoint x="200" y="1020" as="sourcePoint" />
            <mxPoint x="240" y="1720" as="targetPoint" />
            <Array as="points">
              <mxPoint x="240" y="1020" />
            </Array>
          </mxGeometry>
        </mxCell>
        <mxCell id="TFNxjJuRCr5In51Jymzm-43" value="" style="endArrow=classic;html=1;rounded=0;strokeColor=#7F00FF;" edge="1" parent="1">
          <mxGeometry width="50" height="50" relative="1" as="geometry">
            <mxPoint x="240" y="520" as="sourcePoint" />
            <mxPoint x="660" y="520" as="targetPoint" />
          </mxGeometry>
        </mxCell>
        <mxCell id="TFNxjJuRCr5In51Jymzm-44" value="" style="endArrow=classic;html=1;rounded=0;strokeColor=#0000FF;" edge="1" parent="1">
          <mxGeometry width="50" height="50" relative="1" as="geometry">
            <mxPoint x="240" y="720" as="sourcePoint" />
            <mxPoint x="840" y="720" as="targetPoint" />
          </mxGeometry>
        </mxCell>
        <mxCell id="TFNxjJuRCr5In51Jymzm-45" value="" style="endArrow=classic;html=1;rounded=0;strokeColor=#00FFFF;" edge="1" parent="1">
          <mxGeometry width="50" height="50" relative="1" as="geometry">
            <mxPoint x="240" y="920" as="sourcePoint" />
            <mxPoint x="1020" y="920" as="targetPoint" />
          </mxGeometry>
        </mxCell>
        <mxCell id="TFNxjJuRCr5In51Jymzm-46" value="" style="endArrow=classic;html=1;rounded=0;strokeColor=#00FF00;" edge="1" parent="1">
          <mxGeometry width="50" height="50" relative="1" as="geometry">
            <mxPoint x="240" y="1120" as="sourcePoint" />
            <mxPoint x="1200" y="1120" as="targetPoint" />
          </mxGeometry>
        </mxCell>
        <mxCell id="TFNxjJuRCr5In51Jymzm-47" value="" style="endArrow=classic;html=1;rounded=0;strokeColor=#FFFF00;" edge="1" parent="1">
          <mxGeometry width="50" height="50" relative="1" as="geometry">
            <mxPoint x="240" y="1320" as="sourcePoint" />
            <mxPoint x="1380" y="1320" as="targetPoint" />
          </mxGeometry>
        </mxCell>
        <mxCell id="TFNxjJuRCr5In51Jymzm-48" value="" style="endArrow=classic;html=1;rounded=0;strokeColor=#FF8000;" edge="1" parent="1">
          <mxGeometry width="50" height="50" relative="1" as="geometry">
            <mxPoint x="240" y="1520" as="sourcePoint" />
            <mxPoint x="1560" y="1520" as="targetPoint" />
          </mxGeometry>
        </mxCell>
        <mxCell id="TFNxjJuRCr5In51Jymzm-49" value="" style="endArrow=classic;html=1;rounded=0;strokeColor=#FF0000;" edge="1" parent="1">
          <mxGeometry width="50" height="50" relative="1" as="geometry">
            <mxPoint x="240" y="1720" as="sourcePoint" />
            <mxPoint x="1740" y="1720" as="targetPoint" />
          </mxGeometry>
        </mxCell>
        <mxCell id="TFNxjJuRCr5In51Jymzm-50" value="" style="endArrow=classic;html=1;rounded=0;strokeColor=#FF0080;" edge="1" parent="1">
          <mxGeometry width="50" height="50" relative="1" as="geometry">
            <mxPoint x="240" y="320" as="sourcePoint" />
            <mxPoint x="480" y="320" as="targetPoint" />
          </mxGeometry>
        </mxCell>
        <mxCell id="TFNxjJuRCr5In51Jymzm-51" value="" style="endArrow=classic;html=1;rounded=0;" edge="1" parent="1">
          <mxGeometry width="50" height="50" relative="1" as="geometry">
            <mxPoint x="450" y="200" as="sourcePoint" />
            <mxPoint x="2040" y="200" as="targetPoint" />
          </mxGeometry>
        </mxCell>
        <mxCell id="TFNxjJuRCr5In51Jymzm-52" value="" style="endArrow=classic;html=1;rounded=0;entryX=0.219;entryY=0.111;entryDx=0;entryDy=0;entryPerimeter=0;exitX=1;exitY=0.5;exitDx=0;exitDy=0;exitPerimeter=0;" edge="1" parent="1" target="Qjs1h0OX-HIhjmdxqaut-1">
          <mxGeometry width="50" height="50" relative="1" as="geometry">
            <mxPoint x="2195" y="755" as="sourcePoint" />
            <mxPoint x="2195" y="600" as="targetPoint" />
          </mxGeometry>
        </mxCell>
        <mxCell id="TFNxjJuRCr5In51Jymzm-53" value="sel[2]" style="edgeLabel;html=1;align=center;verticalAlign=middle;resizable=0;points=[];" vertex="1" connectable="0" parent="TFNxjJuRCr5In51Jymzm-52">
          <mxGeometry x="0.0274" relative="1" as="geometry">
            <mxPoint y="-7" as="offset" />
          </mxGeometry>
        </mxCell>
        <mxCell id="TFNxjJuRCr5In51Jymzm-57" value="" style="endArrow=none;html=1;rounded=0;entryX=0.5;entryY=0;entryDx=0;entryDy=0;exitX=0.745;exitY=0.369;exitDx=0;exitDy=0;exitPerimeter=0;startArrow=classic;startFill=1;" edge="1" parent="1" source="Qjs1h0OX-HIhjmdxqaut-1">
          <mxGeometry width="50" height="50" relative="1" as="geometry">
            <mxPoint x="2279.81" y="805" as="sourcePoint" />
            <mxPoint x="2279.81" y="755" as="targetPoint" />
          </mxGeometry>
        </mxCell>
        <mxCell id="TFNxjJuRCr5In51Jymzm-58" value="sel[0]" style="edgeLabel;html=1;align=center;verticalAlign=middle;resizable=0;points=[];" vertex="1" connectable="0" parent="TFNxjJuRCr5In51Jymzm-57">
          <mxGeometry x="0.0274" relative="1" as="geometry">
            <mxPoint y="-35" as="offset" />
          </mxGeometry>
        </mxCell>
        <mxCell id="TFNxjJuRCr5In51Jymzm-59" value="" style="endArrow=classic;html=1;rounded=0;entryX=0.5;entryY=0;entryDx=0;entryDy=0;exitX=1;exitY=0.5;exitDx=0;exitDy=0;exitPerimeter=0;" edge="1" parent="1" target="Qjs1h0OX-HIhjmdxqaut-1">
          <mxGeometry width="50" height="50" relative="1" as="geometry">
            <mxPoint x="2240" y="755" as="sourcePoint" />
            <mxPoint x="2240" y="633" as="targetPoint" />
          </mxGeometry>
        </mxCell>
        <mxCell id="TFNxjJuRCr5In51Jymzm-60" value="sel[1]" style="edgeLabel;html=1;align=center;verticalAlign=middle;resizable=0;points=[];" vertex="1" connectable="0" parent="TFNxjJuRCr5In51Jymzm-59">
          <mxGeometry x="0.0274" relative="1" as="geometry">
            <mxPoint y="-23" as="offset" />
          </mxGeometry>
        </mxCell>
        <mxCell id="TFNxjJuRCr5In51Jymzm-61" value="" style="endArrow=classic;html=1;rounded=0;edgeStyle=orthogonalEdgeStyle;" edge="1" parent="1">
          <mxGeometry width="50" height="50" relative="1" as="geometry">
            <mxPoint x="2040" y="200" as="sourcePoint" />
            <mxPoint x="2195" y="760" as="targetPoint" />
          </mxGeometry>
        </mxCell>
        <mxCell id="TFNxjJuRCr5In51Jymzm-64" value="[5]" style="edgeLabel;html=1;align=center;verticalAlign=middle;resizable=0;points=[];" vertex="1" connectable="0" parent="TFNxjJuRCr5In51Jymzm-61">
          <mxGeometry x="0.2371" y="-1" relative="1" as="geometry">
            <mxPoint as="offset" />
          </mxGeometry>
        </mxCell>
        <mxCell id="TFNxjJuRCr5In51Jymzm-62" value="" style="endArrow=classic;html=1;rounded=0;edgeStyle=orthogonalEdgeStyle;" edge="1" parent="1">
          <mxGeometry width="50" height="50" relative="1" as="geometry">
            <mxPoint x="2040" y="200" as="sourcePoint" />
            <mxPoint x="2240" y="760" as="targetPoint" />
          </mxGeometry>
        </mxCell>
        <mxCell id="TFNxjJuRCr5In51Jymzm-65" value="[4]" style="edgeLabel;html=1;align=center;verticalAlign=middle;resizable=0;points=[];" vertex="1" connectable="0" parent="TFNxjJuRCr5In51Jymzm-62">
          <mxGeometry x="0.2858" relative="1" as="geometry">
            <mxPoint as="offset" />
          </mxGeometry>
        </mxCell>
        <mxCell id="TFNxjJuRCr5In51Jymzm-63" value="" style="endArrow=classic;html=1;rounded=0;edgeStyle=orthogonalEdgeStyle;" edge="1" parent="1">
          <mxGeometry width="50" height="50" relative="1" as="geometry">
            <mxPoint x="2040" y="200" as="sourcePoint" />
            <mxPoint x="2280" y="760" as="targetPoint" />
          </mxGeometry>
        </mxCell>
        <mxCell id="TFNxjJuRCr5In51Jymzm-66" value="[3]" style="edgeLabel;html=1;align=center;verticalAlign=middle;resizable=0;points=[];" vertex="1" connectable="0" parent="TFNxjJuRCr5In51Jymzm-63">
          <mxGeometry x="0.3283" y="1" relative="1" as="geometry">
            <mxPoint as="offset" />
          </mxGeometry>
        </mxCell>
      </root>
    </mxGraphModel>
  </diagram>
</mxfile>
